<svg width="240" height="40" viewBox="0 0 240 40" fill="none" xmlns="http://www.w3.org/2000/svg">
<path d="M35.1426 0C46.0132 0 54.8572 8.84334 54.8574 19.7139C54.8574 30.5846 46.0133 39.4287 35.1426 39.4287H19.7139C8.84334 39.4285 0 30.5844 0 19.7139C0.000226358 8.84348 8.84348 0.000227087 19.7139 0H35.1426ZM66 0C79.7141 0 86.5456 9.10692 92.5713 17.1426C97.1848 23.2947 101.274 28.746 108 30.3682V0H116.571V39.4287H112.286C98.5719 39.4287 91.7396 30.3218 85.7139 22.2861C81.1004 16.1341 77.0124 10.6818 70.2861 9.05957V39.4287H61.7139V0H66ZM132.001 10.0713C132.001 13.0263 134.403 15.4287 137.358 15.4287H141.215C148.895 15.4288 155.144 21.6775 155.144 29.3574V39.4287H146.572V29.3574C146.572 26.4025 144.17 24.0001 141.215 24H137.358C129.678 24 123.43 17.7513 123.43 10.0713V0H132.001V10.0713ZM204.872 23.5723C205.016 23.8014 205.159 24.0306 205.303 24.2598C206.738 26.5568 208.202 28.8946 209.844 31.1338C209.165 31.9287 208.455 32.6941 207.705 33.4141C203.488 37.4617 198.772 39.4286 193.286 39.4287H185.143V30.8574H193.286C198.191 30.8573 201.463 28.1998 204.872 23.5693V23.5723ZM193.286 0C198.772 6.82451e-05 203.488 1.96709 207.705 6.01465C209.52 7.75665 211.106 9.75623 212.571 11.8496C214.037 9.75614 215.624 7.75672 217.438 6.01465C221.655 1.96714 226.372 6.56605e-05 231.857 0H240V8.57129H231.857C225.718 8.57141 222.139 12.7284 217.644 19.7139C222.139 26.6995 225.718 30.8573 231.857 30.8574H240V39.4287H231.857C226.372 39.4286 221.656 37.4609 217.438 33.4131C214.042 30.1517 211.447 25.9989 208.938 21.9854C203.722 13.6392 200.064 8.57143 193.286 8.57129H185.143V0H193.286ZM19.7139 8.57129C13.5706 8.57152 8.57152 13.5706 8.57129 19.7139C8.57129 25.8573 13.5705 30.8572 19.7139 30.8574H35.1426C41.2861 30.8574 46.2861 25.8574 46.2861 19.7139C46.2859 13.5705 41.286 8.57129 35.1426 8.57129H19.7139ZM178.287 10.0713C178.287 17.7511 172.038 23.9998 164.358 24H158.144V15.4287H164.358C167.313 15.4285 169.715 13.0261 169.715 10.0713V0H178.287V10.0713Z" fill="#FAFAFA"/>
</svg>
